<?xml version="1.0" encoding="utf-8"?>
<!-- Generator: Adobe Illustrator 15.1.0, SVG Export Plug-In . SVG Version: 6.00 Build 0)  -->
<!DOCTYPE svg PUBLIC "-//W3C//DTD SVG 1.1//EN" "http://www.w3.org/Graphics/SVG/1.1/DTD/svg11.dtd">
<svg version="1.1" id="Layer_1" xmlns="http://www.w3.org/2000/svg" xmlns:xlink="http://www.w3.org/1999/xlink" x="0px" y="0px"
	 width="150px" height="30px" viewBox="0 0 150 30" enable-background="new 0 0 150 30" xml:space="preserve">
<g>
	<path fill="#2C2C2C" d="M10.116,56.7H7.372v-0.618c0-0.629-0.148-1.172-0.444-1.629c-0.296-0.458-0.793-0.686-1.493-0.686
		c-0.376,0-0.682,0.071-0.915,0.215c-0.233,0.145-0.422,0.322-0.565,0.538c-0.144,0.233-0.242,0.498-0.296,0.793
		c-0.053,0.296-0.081,0.605-0.081,0.929c0,0.376,0.014,0.691,0.041,0.942s0.094,0.475,0.202,0.671
		c0.108,0.199,0.264,0.369,0.471,0.513c0.206,0.143,0.488,0.285,0.847,0.429l2.098,0.835c0.61,0.233,1.104,0.507,1.48,0.82
		c0.376,0.314,0.672,0.678,0.887,1.09c0.198,0.43,0.332,0.919,0.404,1.467c0.071,0.548,0.107,1.17,0.107,1.869
		c0,0.807-0.08,1.556-0.241,2.247c-0.162,0.689-0.422,1.277-0.781,1.761c-0.376,0.504-0.87,0.898-1.48,1.184
		C7.004,70.356,6.259,70.5,5.381,70.5c-0.663,0-1.282-0.116-1.856-0.35s-1.067-0.556-1.479-0.969
		c-0.413-0.41-0.741-0.891-0.983-1.439C0.821,67.195,0.7,66.601,0.7,65.953v-1.021h2.744v0.861c0,0.501,0.148,0.953,0.443,1.357
		c0.296,0.403,0.794,0.605,1.493,0.605c0.467,0,0.83-0.067,1.09-0.202c0.26-0.135,0.461-0.327,0.605-0.579
		c0.144-0.25,0.229-0.55,0.255-0.901c0.027-0.349,0.041-0.739,0.041-1.17c0-0.501-0.019-0.915-0.054-1.236
		c-0.036-0.324-0.107-0.583-0.215-0.78c-0.125-0.197-0.292-0.359-0.498-0.485C6.398,62.277,6.125,62.144,5.785,62l-1.964-0.808
		c-1.184-0.484-1.977-1.125-2.381-1.923c-0.403-0.799-0.605-1.799-0.605-3c0-0.719,0.099-1.399,0.297-2.045
		c0.196-0.645,0.493-1.201,0.887-1.668c0.376-0.467,0.856-0.838,1.44-1.117c0.582-0.277,1.277-0.416,2.085-0.416
		c0.682,0,1.304,0.126,1.87,0.377c0.565,0.251,1.053,0.582,1.466,0.995c0.824,0.86,1.237,1.847,1.237,2.959V56.7z"/>
	<path fill="#2C2C2C" d="M14.931,70.339V51.184h2.745v19.155H14.931z"/>
	<path fill="#2C2C2C" d="M21.684,70.339l3.874-10.033l-3.577-9.122h2.904l2.072,5.677l2.098-5.677h2.906l-3.66,9.122l3.956,10.033
		h-2.906l-2.394-6.456l-2.368,6.456H21.684z"/>
	<path fill="#2C2C2C" d="M46.649,70.339V51.184h2.744v19.155H46.649z"/>
	<path fill="#2C2C2C" d="M54.08,70.339V41.606h2.744v28.732H54.08z"/>
	<path fill="#2C2C2C" d="M61.512,70.339V55.973h2.744v14.366H61.512z"/>
	<path fill="#2C2C2C" d="M88.124,56.7H85.38v-0.618c0-0.629-0.149-1.172-0.444-1.629c-0.296-0.458-0.793-0.686-1.493-0.686
		c-0.377,0-0.683,0.071-0.915,0.215c-0.233,0.145-0.422,0.322-0.565,0.538c-0.145,0.233-0.243,0.498-0.297,0.793
		c-0.052,0.296-0.08,0.605-0.08,0.929c0,0.376,0.013,0.691,0.041,0.942c0.026,0.251,0.093,0.475,0.202,0.671
		c0.107,0.199,0.264,0.369,0.469,0.513c0.208,0.143,0.489,0.285,0.849,0.429l2.097,0.835c0.61,0.233,1.103,0.507,1.479,0.82
		c0.378,0.314,0.673,0.678,0.888,1.09c0.198,0.43,0.332,0.919,0.404,1.467c0.071,0.548,0.107,1.17,0.107,1.869
		c0,0.807-0.081,1.556-0.241,2.247c-0.162,0.689-0.422,1.277-0.78,1.761c-0.378,0.504-0.871,0.898-1.48,1.184
		c-0.609,0.287-1.353,0.431-2.231,0.431c-0.665,0-1.284-0.116-1.858-0.35c-0.573-0.233-1.066-0.556-1.479-0.969
		c-0.412-0.41-0.74-0.891-0.982-1.439c-0.242-0.547-0.363-1.142-0.363-1.789v-1.021h2.745v0.861c0,0.501,0.147,0.953,0.443,1.357
		c0.296,0.403,0.794,0.605,1.494,0.605c0.465,0,0.828-0.067,1.088-0.202c0.259-0.135,0.461-0.327,0.605-0.579
		c0.143-0.25,0.229-0.55,0.254-0.901c0.028-0.349,0.042-0.739,0.042-1.17c0-0.501-0.019-0.915-0.053-1.236
		c-0.038-0.324-0.108-0.583-0.216-0.78c-0.126-0.197-0.292-0.359-0.497-0.485c-0.207-0.125-0.48-0.259-0.822-0.402l-1.962-0.808
		c-1.184-0.484-1.978-1.125-2.381-1.923c-0.404-0.799-0.605-1.799-0.605-3c0-0.719,0.098-1.399,0.295-2.045
		c0.196-0.645,0.493-1.201,0.888-1.668c0.376-0.467,0.856-0.838,1.439-1.117c0.583-0.277,1.278-0.416,2.084-0.416
		c0.682,0,1.306,0.126,1.871,0.377c0.565,0.251,1.052,0.582,1.465,0.995c0.825,0.86,1.237,1.847,1.237,2.959V56.7z"/>
	<path fill="#2C2C2C" d="M94.661,70.339V53.768h-3.174v-2.584h9.093v2.584h-3.175v16.571H94.661z"/>
	<path fill="#2C2C2C" d="M113.358,51.184v14.852c0,0.628-0.112,1.205-0.337,1.734s-0.543,1.002-0.955,1.412
		c-0.412,0.413-0.888,0.735-1.425,0.969c-0.54,0.233-1.112,0.35-1.723,0.35c-0.609,0-1.181-0.116-1.708-0.35
		c-0.529-0.233-0.999-0.556-1.413-0.969c-0.413-0.41-0.735-0.883-0.969-1.412c-0.232-0.529-0.35-1.106-0.35-1.734V51.184h2.744
		v14.582c0,0.683,0.162,1.184,0.484,1.508c0.324,0.322,0.727,0.483,1.211,0.483c0.483,0,0.889-0.161,1.212-0.483
		c0.322-0.324,0.483-0.825,0.483-1.508V51.184H113.358z"/>
	<path fill="#2C2C2C" d="M118.632,70.339V51.184h4.062c1.577,0,2.774,0.432,3.591,1.293c0.815,0.86,1.224,2.081,1.224,3.658v8.959
		c0,1.793-0.434,3.116-1.305,3.967c-0.869,0.853-2.122,1.278-3.753,1.278H118.632z M121.375,53.768v13.989h1.264
		c0.772,0,1.32-0.194,1.642-0.579c0.323-0.385,0.485-0.991,0.485-1.814v-9.229c0-0.753-0.153-1.337-0.459-1.748
		c-0.305-0.414-0.86-0.619-1.668-0.619H121.375z"/>
	<path fill="#2C2C2C" d="M132.862,70.339V51.184h2.745v19.155H132.862z"/>
	<path fill="#2C2C2C" d="M140.799,55.705c0-0.771,0.135-1.455,0.403-2.045c0.269-0.593,0.627-1.085,1.077-1.48
		c0.43-0.377,0.917-0.662,1.465-0.861c0.549-0.197,1.099-0.295,1.655-0.295c0.556,0,1.106,0.098,1.653,0.295
		c0.548,0.199,1.046,0.484,1.492,0.861c0.432,0.396,0.782,0.888,1.052,1.48c0.269,0.59,0.403,1.273,0.403,2.045v10.113
		c0,0.809-0.135,1.498-0.403,2.073c-0.27,0.574-0.62,1.048-1.052,1.424c-0.446,0.397-0.944,0.692-1.492,0.89
		c-0.547,0.196-1.098,0.295-1.653,0.295c-0.557,0-1.106-0.099-1.655-0.295c-0.548-0.197-1.035-0.492-1.465-0.89
		c-0.45-0.376-0.809-0.85-1.077-1.424c-0.269-0.575-0.403-1.265-0.403-2.073V55.705z M143.542,65.818
		c0,0.665,0.185,1.154,0.554,1.468c0.365,0.313,0.801,0.471,1.304,0.471c0.502,0,0.937-0.157,1.306-0.471
		c0.366-0.313,0.551-0.803,0.551-1.468V55.705c0-0.664-0.185-1.154-0.551-1.467c-0.369-0.314-0.804-0.471-1.306-0.471
		c-0.503,0-0.938,0.156-1.304,0.471c-0.369,0.312-0.554,0.803-0.554,1.467V65.818z"/>
</g>
<g>
	<path d="M6.086,20.401c0.672,0.496,1.138,0.996,1.395,1.501c0.257,0.504,0.385,1.155,0.385,1.953v2.708
		c0,2.302-1.152,3.453-3.453,3.453H3.829c-2.267,0-3.4-1.132-3.4-3.398v-3.905h2.072v3.984c0,0.938,0.469,1.407,1.407,1.407h0.425
		c0.939,0,1.408-0.47,1.408-1.407v-2.79c0-0.442-0.071-0.787-0.213-1.035s-0.381-0.496-0.717-0.743l-2.604-1.887
		c-0.672-0.479-1.138-0.978-1.394-1.501c-0.257-0.522-0.385-1.173-0.385-1.952v-2.231c0-2.302,1.15-3.453,3.454-3.453h0.531
		c2.266,0,3.399,1.133,3.399,3.4v3.346H5.741v-3.426c0-0.938-0.469-1.407-1.408-1.407H3.961c-0.938,0-1.408,0.469-1.408,1.407v2.337
		c0,0.443,0.076,0.789,0.226,1.035c0.15,0.249,0.394,0.497,0.729,0.745L6.086,20.401z"/>
	<path d="M17.215,11.265v18.593H15.09V11.265H17.215z"/>
	<path d="M32.195,11.265l-2.762,9.297l2.816,9.296h-2.125l-1.991-7.225l-1.992,7.225h-2.072l2.815-9.271l-2.762-9.322h2.125
		l1.938,7.251l1.939-7.251H32.195z"/>
	<path fill="#444444" d="M48.988,11.265v18.593h-2.125V11.265H48.988z"/>
	<path fill="#444444" d="M55.176,1.968v27.89h-2.125V1.968H55.176z"/>
	<path fill="#444444" d="M61.365,15.913v13.945h-2.125V15.913H61.365z"/>
	<path d="M80.215,20.401c0.673,0.496,1.138,0.996,1.395,1.501c0.257,0.504,0.386,1.155,0.386,1.953v2.708
		c0,2.302-1.152,3.453-3.453,3.453h-0.584c-2.267,0-3.4-1.132-3.4-3.398v-3.905h2.072v3.984c0,0.938,0.469,1.407,1.407,1.407h0.425
		c0.939,0,1.408-0.47,1.408-1.407v-2.79c0-0.442-0.071-0.787-0.213-1.035c-0.142-0.248-0.381-0.496-0.717-0.743l-2.604-1.887
		c-0.673-0.479-1.138-0.978-1.394-1.501c-0.257-0.522-0.385-1.173-0.385-1.952v-2.231c0-2.302,1.15-3.453,3.454-3.453h0.531
		c2.266,0,3.399,1.133,3.399,3.4v3.346h-2.071v-3.426c0-0.938-0.469-1.407-1.408-1.407h-0.372c-0.938,0-1.408,0.469-1.408,1.407
		v2.337c0,0.443,0.076,0.789,0.227,1.035c0.149,0.249,0.393,0.497,0.729,0.745L80.215,20.401z"/>
	<path d="M93.098,29.857h-2.125V13.23h-2.789v-1.965h7.702v1.965h-2.789V29.857z"/>
	<path d="M110.017,11.265v15.299c0,2.302-1.151,3.453-3.452,3.453H105.9c-2.303,0-3.453-1.151-3.453-3.453V11.265h2.125v15.404
		c0,0.939,0.469,1.408,1.408,1.408h0.504c0.939,0,1.408-0.469,1.408-1.408V11.265H110.017z"/>
	<path d="M117.321,29.857V11.265h3.506c2.744,0,4.118,1.373,4.118,4.118V25.74c0,2.745-1.374,4.117-4.118,4.117H117.321z
		 M119.445,13.204v14.714h1.275c1.398,0,2.099-0.716,2.099-2.151V15.355c0-1.434-0.7-2.151-2.099-2.151H119.445z"/>
	<path d="M134.374,11.265v18.593h-2.126V11.265H134.374z"/>
	<path d="M149.38,26.563c0,2.302-1.152,3.453-3.453,3.453h-0.798c-2.301,0-3.452-1.151-3.452-3.453V14.558
		c0-2.302,1.151-3.453,3.452-3.453h0.798c2.301,0,3.453,1.151,3.453,3.453V26.563z M147.254,14.452c0-0.938-0.469-1.408-1.406-1.408
		h-0.639c-0.938,0-1.408,0.47-1.408,1.408v12.217c0,0.939,0.47,1.408,1.408,1.408h0.639c0.938,0,1.406-0.469,1.406-1.408V14.452z"/>
</g>
</svg>
