<svg xmlns="http://www.w3.org/2000/svg" width="150" height="30" viewBox="0 0 150 30">
<style>
  .a{
    fill:#333;
  }
  .b{
    fill:#fff;
  }
</style>
    <path d="M10.1 56.7H7.4v-0.6c0-0.6-0.1-1.2-0.4-1.6 -0.3-0.5-0.8-0.7-1.5-0.7 -0.4 0-0.7 0.1-0.9 0.2 -0.2 0.1-0.4 0.3-0.6 0.5 -0.1 0.2-0.2 0.5-0.3 0.8 -0.1 0.3-0.1 0.6-0.1 0.9 0 0.4 0 0.7 0 0.9s0.1 0.5 0.2 0.7c0.1 0.2 0.3 0.4 0.5 0.5 0.2 0.1 0.5 0.3 0.8 0.4l2.1 0.8c0.6 0.2 1.1 0.5 1.5 0.8 0.4 0.3 0.7 0.7 0.9 1.1 0.2 0.4 0.3 0.9 0.4 1.5 0.1 0.5 0.1 1.2 0.1 1.9 0 0.8-0.1 1.6-0.2 2.2 -0.2 0.7-0.4 1.3-0.8 1.8 -0.4 0.5-0.9 0.9-1.5 1.2C7 70.4 6.3 70.5 5.4 70.5c-0.7 0-1.3-0.1-1.9-0.3s-1.1-0.6-1.5-1c-0.4-0.4-0.7-0.9-1-1.4C0.8 67.2 0.7 66.6 0.7 66v-1h2.7v0.9c0 0.5 0.1 1 0.4 1.4 0.3 0.4 0.8 0.6 1.5 0.6 0.5 0 0.8-0.1 1.1-0.2 0.3-0.1 0.5-0.3 0.6-0.6 0.1-0.2 0.2-0.5 0.3-0.9 0-0.3 0-0.7 0-1.2 0-0.5 0-0.9-0.1-1.2 0-0.3-0.1-0.6-0.2-0.8 -0.1-0.2-0.3-0.4-0.5-0.5C6.4 62.3 6.1 62.1 5.8 62l-2-0.8c-1.2-0.5-2-1.1-2.4-1.9 -0.4-0.8-0.6-1.8-0.6-3 0-0.7 0.1-1.4 0.3-2 0.2-0.6 0.5-1.2 0.9-1.7 0.4-0.5 0.9-0.8 1.4-1.1 0.6-0.3 1.3-0.4 2.1-0.4 0.7 0 1.3 0.1 1.9 0.4 0.6 0.3 1.1 0.6 1.5 1 0.8 0.9 1.2 1.8 1.2 3V56.7z" class="a"/>
    <path d="M14.9 70.3V51.2h2.7v19.2H14.9z" class="a"/>
    <path d="M21.7 70.3l3.9-10 -3.6-9.1h2.9l2.1 5.7 2.1-5.7h2.9l-3.7 9.1 4 10h-2.9l-2.4-6.5 -2.4 6.5H21.7z" class="a"/>
    <path d="M46.6 70.3V51.2h2.7v19.2H46.6z" class="a bar-med"/>
    <path d="M54.1 70.3V41.6h2.7v28.7H54.1z" class="a bar-tall"/>
    <path d="M61.5 70.3V56h2.7v14.4H61.5z" class="a bar-short"/>
    <path d="M88.1 56.7H85.4v-0.6c0-0.6-0.1-1.2-0.4-1.6 -0.3-0.5-0.8-0.7-1.5-0.7 -0.4 0-0.7 0.1-0.9 0.2 -0.2 0.1-0.4 0.3-0.6 0.5 -0.1 0.2-0.2 0.5-0.3 0.8 -0.1 0.3-0.1 0.6-0.1 0.9 0 0.4 0 0.7 0 0.9 0 0.3 0.1 0.5 0.2 0.7 0.1 0.2 0.3 0.4 0.5 0.5 0.2 0.1 0.5 0.3 0.8 0.4l2.1 0.8c0.6 0.2 1.1 0.5 1.5 0.8 0.4 0.3 0.7 0.7 0.9 1.1 0.2 0.4 0.3 0.9 0.4 1.5 0.1 0.5 0.1 1.2 0.1 1.9 0 0.8-0.1 1.6-0.2 2.2 -0.2 0.7-0.4 1.3-0.8 1.8 -0.4 0.5-0.9 0.9-1.5 1.2 -0.6 0.3-1.4 0.4-2.2 0.4 -0.7 0-1.3-0.1-1.9-0.3 -0.6-0.2-1.1-0.6-1.5-1 -0.4-0.4-0.7-0.9-1-1.4 -0.2-0.5-0.4-1.1-0.4-1.8v-1h2.7v0.9c0 0.5 0.1 1 0.4 1.4 0.3 0.4 0.8 0.6 1.5 0.6 0.5 0 0.8-0.1 1.1-0.2 0.3-0.1 0.5-0.3 0.6-0.6 0.1-0.2 0.2-0.5 0.3-0.9 0-0.3 0-0.7 0-1.2 0-0.5 0-0.9-0.1-1.2 0-0.3-0.1-0.6-0.2-0.8 -0.1-0.2-0.3-0.4-0.5-0.5 -0.2-0.1-0.5-0.3-0.8-0.4l-2-0.8c-1.2-0.5-2-1.1-2.4-1.9 -0.4-0.8-0.6-1.8-0.6-3 0-0.7 0.1-1.4 0.3-2 0.2-0.6 0.5-1.2 0.9-1.7 0.4-0.5 0.9-0.8 1.4-1.1 0.6-0.3 1.3-0.4 2.1-0.4 0.7 0 1.3 0.1 1.9 0.4 0.6 0.3 1.1 0.6 1.5 1 0.8 0.9 1.2 1.8 1.2 3V56.7z" class="a"/>
    <path d="M94.7 70.3V53.8h-3.2v-2.6h9.1v2.6h-3.2v16.6H94.7z" class="a"/>
    <path d="M113.4 51.2v14.9c0 0.6-0.1 1.2-0.3 1.7s-0.5 1-1 1.4c-0.4 0.4-0.9 0.7-1.4 1 -0.5 0.2-1.1 0.4-1.7 0.4 -0.6 0-1.2-0.1-1.7-0.3 -0.5-0.2-1-0.6-1.4-1 -0.4-0.4-0.7-0.9-1-1.4 -0.2-0.5-0.3-1.1-0.3-1.7V51.2h2.7v14.6c0 0.7 0.2 1.2 0.5 1.5 0.3 0.3 0.7 0.5 1.2 0.5 0.5 0 0.9-0.2 1.2-0.5 0.3-0.3 0.5-0.8 0.5-1.5V51.2H113.4z" class="a"/>
    <path d="M118.6 70.3V51.2h4.1c1.6 0 2.8 0.4 3.6 1.3 0.8 0.9 1.2 2.1 1.2 3.7v9c0 1.8-0.4 3.1-1.3 4 -0.9 0.9-2.1 1.3-3.8 1.3H118.6zM121.4 53.8v14h1.3c0.8 0 1.3-0.2 1.6-0.6 0.3-0.4 0.5-1 0.5-1.8v-9.2c0-0.8-0.2-1.3-0.5-1.7 -0.3-0.4-0.9-0.6-1.7-0.6H121.4z" class="a"/>
    <path d="M132.9 70.3V51.2h2.7v19.2H132.9z" class="a"/>
    <path d="M140.8 55.7c0-0.8 0.1-1.5 0.4-2 0.3-0.6 0.6-1.1 1.1-1.5 0.4-0.4 0.9-0.7 1.5-0.9 0.5-0.2 1.1-0.3 1.7-0.3 0.6 0 1.1 0.1 1.7 0.3 0.5 0.2 1 0.5 1.5 0.9 0.4 0.4 0.8 0.9 1.1 1.5 0.3 0.6 0.4 1.3 0.4 2v10.1c0 0.8-0.1 1.5-0.4 2.1 -0.3 0.6-0.6 1-1.1 1.4 -0.4 0.4-0.9 0.7-1.5 0.9 -0.5 0.2-1.1 0.3-1.7 0.3 -0.6 0-1.1-0.1-1.7-0.3 -0.5-0.2-1-0.5-1.5-0.9 -0.4-0.4-0.8-0.8-1.1-1.4 -0.3-0.6-0.4-1.3-0.4-2.1V55.7zM143.5 65.8c0 0.7 0.2 1.2 0.6 1.5 0.4 0.3 0.8 0.5 1.3 0.5 0.5 0 0.9-0.2 1.3-0.5 0.4-0.3 0.6-0.8 0.6-1.5V55.7c0-0.7-0.2-1.2-0.6-1.5 -0.4-0.3-0.8-0.5-1.3-0.5 -0.5 0-0.9 0.2-1.3 0.5 -0.4 0.3-0.6 0.8-0.6 1.5V65.8z" class="a"/>
    <path d="M6.1 20.4c0.7 0.5 1.1 1 1.4 1.5 0.3 0.5 0.4 1.2 0.4 2v2.7c0 2.3-1.2 3.5-3.5 3.5H3.8c-2.3 0-3.4-1.1-3.4-3.4v-3.9h2.1v4c0 0.9 0.5 1.4 1.4 1.4h0.4c0.9 0 1.4-0.5 1.4-1.4v-2.8c0-0.4-0.1-0.8-0.2-1s-0.4-0.5-0.7-0.7l-2.6-1.9c-0.7-0.5-1.1-1-1.4-1.5 -0.3-0.5-0.4-1.2-0.4-2v-2.2c0-2.3 1.2-3.5 3.5-3.5h0.5c2.3 0 3.4 1.1 3.4 3.4v3.3H5.7v-3.4c0-0.9-0.5-1.4-1.4-1.4H4c-0.9 0-1.4 0.5-1.4 1.4v2.3c0 0.4 0.1 0.8 0.2 1 0.2 0.2 0.4 0.5 0.7 0.7L6.1 20.4z"/>
    <path d="M17.2 11.3v18.6H15.1V11.3H17.2z"/>
    <path d="M32.2 11.3l-2.8 9.3 2.8 9.3h-2.1l-2-7.2 -2 7.2h-2.1l2.8-9.3 -2.8-9.3h2.1l1.9 7.3 1.9-7.3H32.2z"/>
    <path d="M49 11.3v18.6h-2.1V11.3H49z" class="b"/>
    <path d="M55.2 2v27.9h-2.1V2H55.2z" class="b"/>
    <path d="M61.4 15.9v13.9h-2.1V15.9H61.4z" class="b"/>
    <path d="M80.2 20.4c0.7 0.5 1.1 1 1.4 1.5 0.3 0.5 0.4 1.2 0.4 2v2.7c0 2.3-1.2 3.5-3.5 3.5h-0.6c-2.3 0-3.4-1.1-3.4-3.4v-3.9h2.1v4c0 0.9 0.5 1.4 1.4 1.4h0.4c0.9 0 1.4-0.5 1.4-1.4v-2.8c0-0.4-0.1-0.8-0.2-1 -0.1-0.2-0.4-0.5-0.7-0.7l-2.6-1.9c-0.7-0.5-1.1-1-1.4-1.5 -0.3-0.5-0.4-1.2-0.4-2v-2.2c0-2.3 1.2-3.5 3.5-3.5h0.5c2.3 0 3.4 1.1 3.4 3.4v3.3h-2.1v-3.4c0-0.9-0.5-1.4-1.4-1.4h-0.4c-0.9 0-1.4 0.5-1.4 1.4v2.3c0 0.4 0.1 0.8 0.2 1 0.1 0.2 0.4 0.5 0.7 0.7L80.2 20.4z"/>
    <path d="M93.1 29.9h-2.1V13.2h-2.8v-2h7.7v2h-2.8V29.9z"/>
    <path d="M110 11.3v15.3c0 2.3-1.2 3.5-3.5 3.5H105.9c-2.3 0-3.5-1.2-3.5-3.5V11.3h2.1v15.4c0 0.9 0.5 1.4 1.4 1.4h0.5c0.9 0 1.4-0.5 1.4-1.4V11.3H110z"/>
    <path d="M117.3 29.9V11.3h3.5c2.7 0 4.1 1.4 4.1 4.1V25.7c0 2.7-1.4 4.1-4.1 4.1H117.3zM119.4 13.2v14.7h1.3c1.4 0 2.1-0.7 2.1-2.2V15.4c0-1.4-0.7-2.2-2.1-2.2H119.4z"/>
    <path d="M134.4 11.3v18.6h-2.1V11.3H134.4z"/>
    <path d="M149.4 26.6c0 2.3-1.2 3.5-3.5 3.5h-0.8c-2.3 0-3.5-1.2-3.5-3.5V14.6c0-2.3 1.2-3.5 3.5-3.5h0.8c2.3 0 3.5 1.2 3.5 3.5V26.6zM147.3 14.5c0-0.9-0.5-1.4-1.4-1.4h-0.6c-0.9 0-1.4 0.5-1.4 1.4v12.2c0 0.9 0.5 1.4 1.4 1.4h0.6c0.9 0 1.4-0.5 1.4-1.4V14.5z"/>
</svg>
