<?xml version="1.0" encoding="utf-8"?>
<!-- Generator: Adobe Illustrator 15.1.0, SVG Export Plug-In . SVG Version: 6.00 Build 0)  -->
<!DOCTYPE svg PUBLIC "-//W3C//DTD SVG 1.1//EN" "http://www.w3.org/Graphics/SVG/1.1/DTD/svg11.dtd">
<svg version="1.1" id="Layer_1" xmlns="http://www.w3.org/2000/svg" xmlns:xlink="http://www.w3.org/1999/xlink" x="0px" y="0px"
	 width="207.623px" height="31.5px" viewBox="0 0 207.623 31.5" enable-background="new 0 0 207.623 31.5" xml:space="preserve">
<g>
	<path d="M4.405,30.049c-1.09-0.459-1.931-1.113-2.52-1.965C1.295,27.234,1,26.25,1,25.129v-0.84c0-0.26,0.13-0.389,0.39-0.389h1.29
		c0.26,0,0.39,0.129,0.39,0.389v0.721c0,1.141,0.48,2.07,1.44,2.789c0.96,0.721,2.25,1.08,3.87,1.08c1.54,0,2.71-0.324,3.51-0.975
		c0.8-0.65,1.2-1.516,1.2-2.596c0-0.699-0.185-1.299-0.555-1.799c-0.371-0.5-0.935-0.971-1.695-1.41S8.99,21.15,7.57,20.57
		c-1.5-0.602-2.665-1.125-3.495-1.576c-0.83-0.449-1.5-1.029-2.01-1.74C1.555,16.545,1.3,15.65,1.3,14.57
		c0-1.682,0.585-2.986,1.755-3.916S5.84,9.26,7.9,9.26c2.2,0,3.94,0.52,5.22,1.561c1.28,1.039,1.92,2.42,1.92,4.139v0.57
		c0,0.26-0.13,0.391-0.39,0.391h-1.32c-0.26,0-0.39-0.131-0.39-0.391V15.08c0-1.16-0.45-2.111-1.35-2.85
		c-0.9-0.74-2.17-1.111-3.81-1.111c-1.42,0-2.505,0.291-3.255,0.871S3.4,13.41,3.4,14.51c0,0.721,0.185,1.314,0.555,1.785
		c0.37,0.471,0.9,0.881,1.59,1.23S7.29,18.33,8.71,18.889c1.46,0.602,2.64,1.16,3.54,1.682c0.9,0.52,1.62,1.154,2.16,1.904
		s0.81,1.664,0.81,2.744c0,1.66-0.615,2.996-1.845,4.006S10.43,30.74,8.23,30.74C6.77,30.74,5.495,30.51,4.405,30.049z"/>
	<path d="M22.69,30.109V9.889c0-0.26,0.13-0.389,0.39-0.389h1.35c0.26,0,0.39,0.129,0.39,0.389v20.221c0,0.26-0.13,0.391-0.39,0.391
		h-1.35C22.82,30.5,22.69,30.369,22.69,30.109z"/>
	<path d="M31.854,30.365c-0.05-0.09-0.035-0.205,0.045-0.346l6.24-9.93c0.04-0.061,0.04-0.121,0-0.18l-6.24-9.93
		c-0.04-0.121-0.06-0.191-0.06-0.211c0-0.08,0.03-0.145,0.09-0.195c0.06-0.049,0.14-0.074,0.24-0.074h1.47
		c0.18,0,0.33,0.09,0.45,0.27l5.31,8.43c0.06,0.121,0.12,0.121,0.18,0l5.28-8.43c0.12-0.18,0.27-0.27,0.45-0.27h1.47
		c0.2,0,0.3,0.08,0.3,0.24c0,0.1-0.02,0.18-0.06,0.24l-6.21,9.959c-0.02,0.061-0.02,0.119,0,0.18l6.21,9.9
		c0.04,0.119,0.06,0.189,0.06,0.211c0,0.08-0.03,0.145-0.09,0.193c-0.06,0.051-0.14,0.076-0.24,0.076h-1.44
		c-0.18,0-0.33-0.09-0.45-0.27l-5.28-8.4c-0.06-0.121-0.12-0.121-0.18,0l-5.31,8.4c-0.12,0.18-0.27,0.27-0.45,0.27h-1.47
		C32.009,30.5,31.904,30.455,31.854,30.365z"/>
	<path d="M62.629,30.207V14.041c0-0.194,0.13-0.291,0.39-0.291h1.35c0.26,0,0.39,0.097,0.39,0.291v16.166
		c0,0.195-0.13,0.293-0.39,0.293h-1.35C62.759,30.5,62.629,30.402,62.629,30.207z"/>
	<path d="M70.398,29.914V2.583c0-0.39,0.13-0.583,0.39-0.583h1.35c0.26,0,0.39,0.193,0.39,0.583v27.331
		c0,0.39-0.13,0.586-0.39,0.586h-1.35C70.528,30.5,70.398,30.304,70.398,29.914z"/>
	<path d="M78.168,30.109V9.889c0-0.26,0.13-0.389,0.39-0.389h1.35c0.26,0,0.39,0.129,0.39,0.389v20.221
		c0,0.26-0.13,0.391-0.39,0.391h-1.35C78.298,30.5,78.168,30.369,78.168,30.109z"/>
	<path d="M100.233,30.049c-1.09-0.459-1.931-1.113-2.52-1.965c-0.59-0.85-0.885-1.834-0.885-2.955v-0.84
		c0-0.26,0.13-0.389,0.39-0.389h1.29c0.26,0,0.39,0.129,0.39,0.389v0.721c0,1.141,0.48,2.07,1.44,2.789
		c0.96,0.721,2.25,1.08,3.87,1.08c1.54,0,2.71-0.324,3.511-0.975c0.799-0.65,1.199-1.516,1.199-2.596
		c0-0.699-0.186-1.299-0.555-1.799c-0.371-0.5-0.936-0.971-1.695-1.41s-1.85-0.949-3.27-1.529c-1.5-0.602-2.665-1.125-3.495-1.576
		c-0.83-0.449-1.5-1.029-2.01-1.74c-0.51-0.709-0.765-1.604-0.765-2.684c0-1.682,0.585-2.986,1.755-3.916s2.785-1.395,4.845-1.395
		c2.199,0,3.939,0.52,5.22,1.561c1.28,1.039,1.92,2.42,1.92,4.139v0.57c0,0.26-0.13,0.391-0.39,0.391h-1.32
		c-0.26,0-0.391-0.131-0.391-0.391V15.08c0-1.16-0.449-2.111-1.35-2.85c-0.9-0.74-2.17-1.111-3.81-1.111
		c-1.42,0-2.505,0.291-3.255,0.871s-1.125,1.42-1.125,2.52c0,0.721,0.185,1.314,0.555,1.785c0.37,0.471,0.9,0.881,1.59,1.23
		s1.745,0.805,3.165,1.363c1.46,0.602,2.64,1.16,3.54,1.682c0.9,0.52,1.62,1.154,2.16,1.904s0.811,1.664,0.811,2.744
		c0,1.66-0.615,2.996-1.846,4.006s-2.945,1.516-5.145,1.516C102.598,30.74,101.323,30.51,100.233,30.049z"/>
	<path d="M130.848,9.889V11c0,0.26-0.13,0.389-0.39,0.389h-5.761c-0.1,0-0.149,0.051-0.149,0.15v18.57c0,0.26-0.13,0.391-0.39,0.391
		h-1.35c-0.261,0-0.391-0.131-0.391-0.391v-18.57c0-0.1-0.051-0.15-0.15-0.15h-5.52c-0.26,0-0.391-0.129-0.391-0.389V9.889
		c0-0.26,0.131-0.389,0.391-0.389h13.71C130.718,9.5,130.848,9.629,130.848,9.889z"/>
	<path d="M141.138,29.9c-1.08-0.561-1.92-1.346-2.521-2.355c-0.6-1.01-0.899-2.186-0.899-3.525V9.889c0-0.26,0.13-0.389,0.39-0.389
		h1.35c0.26,0,0.391,0.129,0.391,0.389V24.08c0,1.42,0.46,2.574,1.38,3.465s2.13,1.334,3.63,1.334s2.71-0.443,3.631-1.334
		c0.919-0.891,1.379-2.045,1.379-3.465V9.889c0-0.26,0.131-0.389,0.391-0.389h1.35c0.26,0,0.391,0.129,0.391,0.389V24.02
		c0,1.34-0.296,2.516-0.885,3.525c-0.591,1.01-1.426,1.795-2.506,2.355c-1.08,0.559-2.33,0.84-3.75,0.84
		C143.457,30.74,142.218,30.459,141.138,29.9z"/>
	<path d="M160.397,30.109V9.889c0-0.26,0.13-0.389,0.39-0.389h6.99c1.98,0,3.555,0.52,4.725,1.559
		c1.171,1.041,1.756,2.451,1.756,4.23v9.42c0,1.781-0.585,3.191-1.756,4.23c-1.17,1.041-2.744,1.561-4.725,1.561h-6.99
		C160.527,30.5,160.397,30.369,160.397,30.109z M162.678,28.639h5.189c1.301,0,2.336-0.379,3.105-1.139s1.154-1.781,1.154-3.061
		v-8.85c0-1.301-0.379-2.33-1.139-3.09c-0.761-0.76-1.801-1.141-3.121-1.141h-5.189c-0.101,0-0.15,0.051-0.15,0.15v16.98
		C162.527,28.59,162.577,28.639,162.678,28.639z"/>
	<path d="M181.938,30.109V9.889c0-0.26,0.129-0.389,0.39-0.389h1.351c0.26,0,0.39,0.129,0.39,0.389v20.221
		c0,0.26-0.13,0.391-0.39,0.391h-1.351C182.066,30.5,181.938,30.369,181.938,30.109z"/>
	<path d="M195.437,29.869c-1.079-0.58-1.915-1.395-2.505-2.445c-0.59-1.049-0.885-2.264-0.885-3.645v-7.561
		c0-1.379,0.295-2.594,0.885-3.645c0.59-1.049,1.426-1.865,2.505-2.445c1.08-0.58,2.33-0.869,3.75-0.869s2.675,0.289,3.765,0.869
		s1.93,1.396,2.521,2.445c0.59,1.051,0.886,2.266,0.886,3.645v7.561c0,1.381-0.296,2.596-0.886,3.645
		c-0.591,1.051-1.431,1.865-2.521,2.445s-2.345,0.871-3.765,0.871S196.517,30.449,195.437,29.869z M202.847,27.529
		c0.92-0.92,1.38-2.139,1.38-3.66v-7.68c0-1.52-0.46-2.744-1.38-3.676c-0.92-0.93-2.14-1.395-3.66-1.395
		c-1.5,0-2.71,0.465-3.63,1.395c-0.92,0.932-1.38,2.156-1.38,3.676v7.68c0,1.521,0.46,2.74,1.38,3.66s2.13,1.381,3.63,1.381
		C200.707,28.91,201.927,28.449,202.847,27.529z"/>
</g>
</svg>
